<mxfile host="app.diagrams.net" agent="Mozilla/5.0 (Windows NT 10.0; Win64; x64) AppleWebKit/537.36 (KHTML, like Gecko) Chrome/127.0.0.0 Safari/537.36" version="24.7.6">
  <diagram name="PÃ¡gina-1" id="I93mK6WxBho3dMbGlJ0O">
    <mxGraphModel dx="472" dy="779" grid="1" gridSize="10" guides="1" tooltips="1" connect="1" arrows="1" fold="1" page="1" pageScale="1" pageWidth="827" pageHeight="1169" math="0" shadow="0">
      <root>
        <mxCell id="0" />
        <mxCell id="1" parent="0" />
        <mxCell id="hsO_-OM7j5H-zv6RKRYt-1" value="Contato" style="swimlane;fontStyle=1;align=center;verticalAlign=top;childLayout=stackLayout;horizontal=1;startSize=26;horizontalStack=0;resizeParent=1;resizeParentMax=0;resizeLast=0;collapsible=1;marginBottom=0;whiteSpace=wrap;html=1;" vertex="1" parent="1">
          <mxGeometry x="40" y="266" width="410" height="140" as="geometry" />
        </mxCell>
        <mxCell id="hsO_-OM7j5H-zv6RKRYt-2" value="- nome&lt;div&gt;- email&lt;/div&gt;&lt;div&gt;- senha&lt;/div&gt;" style="text;strokeColor=none;fillColor=none;align=left;verticalAlign=top;spacingLeft=4;spacingRight=4;overflow=hidden;rotatable=0;points=[[0,0.5],[1,0.5]];portConstraint=eastwest;whiteSpace=wrap;html=1;" vertex="1" parent="hsO_-OM7j5H-zv6RKRYt-1">
          <mxGeometry y="26" width="410" height="54" as="geometry" />
        </mxCell>
        <mxCell id="hsO_-OM7j5H-zv6RKRYt-3" value="" style="line;strokeWidth=1;fillColor=none;align=left;verticalAlign=middle;spacingTop=-1;spacingLeft=3;spacingRight=3;rotatable=0;labelPosition=right;points=[];portConstraint=eastwest;strokeColor=inherit;" vertex="1" parent="hsO_-OM7j5H-zv6RKRYt-1">
          <mxGeometry y="80" width="410" height="8" as="geometry" />
        </mxCell>
        <mxCell id="hsO_-OM7j5H-zv6RKRYt-4" value="+ insertUser(nome, email, senha):boolean&lt;div&gt;+ checkUser(email):boolean&lt;/div&gt;&lt;div&gt;+ checkPass(email, senha): boolean&lt;/div&gt;" style="text;strokeColor=none;fillColor=none;align=left;verticalAlign=top;spacingLeft=4;spacingRight=4;overflow=hidden;rotatable=0;points=[[0,0.5],[1,0.5]];portConstraint=eastwest;whiteSpace=wrap;html=1;" vertex="1" parent="hsO_-OM7j5H-zv6RKRYt-1">
          <mxGeometry y="88" width="410" height="52" as="geometry" />
        </mxCell>
      </root>
    </mxGraphModel>
  </diagram>
</mxfile>
